#!OML:ASF G:\JayActor3\Patient Classification 1\Patient 1\Session 6\male.ASF
:FULLY-SPECIFIED
:DEGREES
2842
root 12.2311 14.9123 -3.67192 173.174 -76.0668 -164.6
lowerback 35.3054 -1.4572 4.41686
upperback 16.1635 -2.99142 1.7831
thorax -0.0121047 -2.34344 0.455838
lowerneck -2.50868 -2.97175 1.79678
upperneck -18.6291 -3.52253 9.14652
head -5.0421 -2.83922 2.72175
rclavicle -4.8901e-014 2.22639e-014
rhumerus -6.82917 18.2828 -82.1087
rradius 71.1398
rwrist -6.14015
rhand -28.1399 -8.35236
rfingers 7.12502
rthumb -1.52103 -38.3267
lclavicle -4.8901e-014 2.22639e-014
lhumerus 5.02746 -30.1915 64.8549
lradius 82.3722
lwrist 50.0393
lhand -29.305 12.8485
lfingers 7.12502
lthumb -2.64631 42.8119
rfemur -51.8392 -2.50299 24.5664
rtibia 63.7721
rfoot -22.0342 -16.3509
rtoes -0.939983
lfemur -49.2523 16.15 -20.7813
ltibia 62.0833
lfoot -22.6175 9.60641
ltoes 1.2433
2843
root 12.2292 14.9099 -3.67633 173.492 -75.9491 -164.964
lowerback 35.335 -1.47434 4.45328
upperback 16.1706 -3.0078 1.78611
thorax -0.0144404 -2.35241 0.445976
lowerneck -2.4996 -2.95978 1.81937
upperneck -18.688 -3.51019 9.11264
head -5.06386 -2.83703 2.70911
rclavicle 6.16232e-015 1.27222e-014
rhumerus -6.8572 18.1926 -82.1145
rradius 71.0881
rwrist -6.22008
rhand -28.1709 -8.40207
rfingers 7.12502
rthumb -1.551 -38.3762
lclavicle 6.16232e-015 1.27222e-014
lhumerus 5.07261 -30.1834 64.8244
lradius 82.3883
lwrist 50.0104
lhand -29.3112 12.8718
lfingers 7.12502
lthumb -2.65221 42.8351
rfemur -51.8133 -2.38315 24.5061
rtibia 63.8021
rfoot -22.054 -16.2939
rtoes -0.864683
lfemur -49.1884 16.1484 -20.7828
ltibia 62.1205
lfoot -22.6497 9.71257
ltoes 1.192
2844
root 12.2271 14.9082 -3.68055 173.862 -75.8299 -165.383
lowerback 35.362 -1.48931 4.48515
upperback 16.1781 -3.02303 1.78041
thorax -0.0157585 -2.36041 0.42895
lowerneck -2.49083 -2.94602 1.83643
upperneck -18.7488 -3.49417 9.08838
head -5.08597 -2.83343 2.70034
rclavicle 3.97569e-016 1.74931e-014
rhumerus -6.88788 18.0896 -82.1301
rradius 71.0332
rwrist -6.32961
rhand -28.1909 -8.45232
rfingers 7.12502
rthumb -1.57024 -38.4263
lclavicle 3.97569e-016 1.74931e-014
lhumerus 5.11551 -30.1871 64.79
lradius 82.3954
lwrist 50.0312
lhand -29.3481 12.846
lfingers 7.12502
lthumb -2.68792 42.8088
rfemur -51.7807 -2.27062 24.4305
rtibia 63.8247
rfoot -22.0738 -16.2291
rtoes -0.789199
lfemur -49.1114 16.1571 -20.8027
ltibia 62.1411
lfoot -22.6781 9.81242
ltoes 1.13877
2845
root 12.2249 14.9076 -3.68466 174.262 -75.7143 -165.835
lowerback 35.3909 -1.50366 4.51242
upperback 16.1836 -3.03821 1.77115
thorax -0.0201502 -2.36826 0.410776
lowerneck -2.47867 -2.93303 1.85173
upperneck -18.81 -3.47822 9.06921
head -5.10856 -2.83008 2.69352
rclavicle -4.41302e-014 1.31198e-014
rhumerus -6.92774 17.9814 -82.1521
rradius 70.9816
rwrist -6.48875
rhand -28.2048 -8.48188
rfingers 7.12502
rthumb -1.58371 -38.4558
lclavicle -4.41302e-014 1.31198e-014
lhumerus 5.15436 -30.2005 64.7591
lradius 82.3865
lwrist 50.0986
lhand -29.4136 12.7726
lfingers 7.12502
lthumb -2.75118 42.7346
rfemur -51.7376 -2.16688 24.343
rtibia 63.8383
rfoot -22.0928 -16.16
rtoes -0.716308
lfemur -49.0211 16.1728 -20.836
ltibia 62.1457
lfoot -22.6995 9.90191
ltoes 1.07767
2846
root 12.2228 14.9076 -3.68864 174.678 -75.5969 -166.301
lowerback 35.4196 -1.51521 4.53077
upperback 16.185 -3.05153 1.76282
thorax -0.0288983 -2.37551 0.397818
lowerneck -2.46768 -2.91937 1.86419
upperneck -18.8645 -3.4615 9.04998
head -5.12884 -2.82567 2.68689
rclavicle -8.74653e-015 -2.78299e-015
rhumerus -6.9721 17.8788 -82.1749
rradius 70.9316
rwrist -6.69608
rhand -28.2115 -8.49958
rfingers 7.12502
rthumb -1.59019 -38.4734
lclavicle -8.74653e-015 -2.78299e-015
lhumerus 5.18219 -30.2125 64.7398
lradius 82.3658
lwrist 50.1926
lhand -29.5006 12.6975
lfingers 7.12502
lthumb -2.83515 42.6584
rfemur -51.6917 -2.06431 24.25
rtibia 63.8429
rfoot -22.1088 -16.0882
rtoes -0.650797
lfemur -48.9287 16.2023 -20.8783
ltibia 62.1392
lfoot -22.7109 9.98026
ltoes 0.996791
2847
root 12.2205 14.9084 -3.69257 175.112 -75.4772 -166.778
lowerback 35.4414 -1.52248 4.54379
upperback 16.1824 -3.06011 1.7546
thorax -0.0395872 -2.38028 0.386184
lowerneck -2.45793 -2.90803 1.88
upperneck -18.9113 -3.44861 9.02593
head -5.14658 -2.82242 2.67803
rclavicle -1.5704e-014 -4.00551e-014
rhumerus -7.02331 17.7747 -82.1989
rradius 70.8829
rwrist -6.9379
rhand -28.2139 -8.49789
rfingers 7.12502
rthumb -1.59251 -38.4717
lclavicle -1.5704e-014 -4.00551e-014
lhumerus 5.20077 -30.2278 64.7317
lradius 82.3395
lwrist 50.3079
lhand -29.5946 12.6165
lfingers 7.12502
lthumb -2.92596 42.5762
rfemur -51.6472 -1.95941 24.1514
rtibia 63.8374
rfoot -22.1232 -16.0123
rtoes -0.573333
lfemur -48.8411 16.2461 -20.9295
ltibia 62.1256
lfoot -22.7113 10.0444
ltoes 0.892048
2848
root 12.2182 14.9097 -3.69643 175.534 -75.3539 -167.231
lowerback 35.4532 -1.52698 4.55175
upperback 16.1745 -3.06547 1.75172
thorax -0.052317 -2.38357 0.381547
lowerneck -2.4444 -2.89628 1.89683
upperneck -18.9517 -3.43618 8.99124
head -5.1632 -2.81822 2.66553
rclavicle 9.14409e-015 -1.19271e-014
rhumerus -7.07848 17.6774 -82.2199
rradius 70.8344
rwrist -7.17722
rhand -28.216 -8.49994
rfingers 7.12502
rthumb -1.59449 -38.4737
lclavicle 9.14409e-015 -1.19271e-014
lhumerus 5.20058 -30.234 64.7392
lradius 82.3172
lwrist 50.4299
lhand -29.6899 12.554
lfingers 7.12502
lthumb -3.01795 42.5124
rfemur -51.6096 -1.84956 24.0568
rtibia 63.8215
rfoot -22.1357 -15.9345
rtoes -0.484142
lfemur -48.7688 16.3039 -20.981
ltibia 62.1109
lfoot -22.6955 10.0954
ltoes 0.736235
2849
root 12.2159 14.9115 -3.70013 175.942 -75.2297 -167.66
lowerback 35.4565 -1.53117 4.55943
upperback 16.1616 -3.06918 1.75229
thorax -0.0676852 -2.38576 0.380016
lowerneck -2.42569 -2.88238 1.91569
upperneck -18.9869 -3.42185 8.9444
head -5.17948 -2.81193 2.64875
rclavicle -6.50026e-014 6.36111e-015
rhumerus -7.13745 17.586 -82.2387
rradius 70.7844
rwrist -7.38999
rhand -28.2186 -8.51397
rfingers 7.12502
rthumb -1.59701 -38.4877
lclavicle -6.50026e-014 6.36111e-015
lhumerus 5.18187 -30.2283 64.7664
lradius 82.299
lwrist 50.5368
lhand -29.7805 12.5144
lfingers 7.12502
lthumb -3.10551 42.4715
rfemur -51.5753 -1.73772 23.9658
rtibia 63.7926
rfoot -22.1428 -15.8568
rtoes -0.392787
lfemur -48.7105 16.369 -21.0303
ltibia 62.0973
lfoot -22.662 10.1301
ltoes 0.539864
2850
root 12.2136 14.9141 -3.70361 176.304 -75.1087 -168.031
lowerback 35.448 -1.53873 4.57237
upperback 16.1467 -3.0749 1.76068
thorax -0.0808382 -2.38874 0.384071
lowerneck -2.39735 -2.86527 1.9286
upperneck -19.0259 -3.40348 8.88885
head -5.19871 -2.80283 2.63038
rclavicle -3.97569e-015 4.06515e-014
rhumerus -7.19238 17.5092 -82.2491
rradius 70.7322
rwrist -7.56131
rhand -28.2313 -8.52848
rfingers 7.12502
rthumb -1.60929 -38.5022
lclavicle -3.97569e-015 4.06515e-014
lhumerus 5.14441 -30.2027 64.8134
lradius 82.2894
lwrist 50.6127
lhand -29.8648 12.5153
lfingers 7.12502
lthumb -3.18688 42.4712
rfemur -51.542 -1.6262 23.8858
rtibia 63.7476
rfoot -22.1445 -15.7823
rtoes -0.307871
lfemur -48.6682 16.4334 -21.0673
ltibia 62.0879
lfoot -22.604 10.1458
ltoes 0.299369
